
<svg width="0" height="0" class="hidden">
  <symbol  xmlns="http://www.w3.org/2000/svg" viewBox="0 0 70 70" id="aim">
    <path
      d="M35 62.7083C29.5198 62.7083 24.1627 61.0833 19.6061 58.0386C15.0495 54.994 11.498 50.6665 9.40087 45.6035C7.30369 40.5405 6.75498 34.9692 7.82411 29.5944C8.89324 24.2195 11.5322 19.2823 15.4073 15.4072C19.2824 11.5322 24.2195 8.89319 29.5944 7.82406C34.9693 6.75493 40.5405 7.30365 45.6035 9.40083C50.6666 11.498 54.994 15.0494 58.0387 19.6061C61.0833 24.1627 62.7084 29.5198 62.7084 35C62.7006 42.3463 59.7789 49.3896 54.5843 54.5842C49.3896 59.7789 42.3464 62.7006 35 62.7083ZM35 10.2083C30.0967 10.2083 25.3035 11.6623 21.2265 14.3865C17.1496 17.1106 13.9719 20.9825 12.0955 25.5126C10.2191 30.0427 9.72814 35.0275 10.6847 39.8366C11.6413 44.6457 14.0025 49.0632 17.4697 52.5303C20.9369 55.9975 25.3543 58.3587 30.1634 59.3153C34.9725 60.2719 39.9573 59.7809 44.4874 57.9045C49.0175 56.0281 52.8894 52.8505 55.6135 48.7735C58.3377 44.6965 59.7917 39.9033 59.7917 35C59.784 28.4272 57.1695 22.1258 52.5219 17.4782C47.8742 12.8305 41.5728 10.216 35 10.2083Z"
      ></path>
    <path
      d="M35 50.1958C31.9946 50.1958 29.0566 49.3046 26.5577 47.6349C24.0587 45.9651 22.1111 43.5919 20.9609 40.8152C19.8108 38.0385 19.5099 34.9831 20.0962 32.0354C20.6825 29.0877 22.1298 26.3801 24.255 24.2549C26.3801 22.1297 29.0878 20.6825 32.0355 20.0961C34.9832 19.5098 38.0386 19.8107 40.8152 20.9609C43.5919 22.111 45.9652 24.0587 47.6349 26.5576C49.3047 29.0566 50.1959 31.9945 50.1959 35C50.1882 39.0278 48.5847 42.8884 45.7366 45.7365C42.8885 48.5846 39.0279 50.1881 35 50.1958ZM35 22.7208C32.5715 22.7208 30.1974 23.441 28.1781 24.7902C26.1588 26.1395 24.5849 28.0572 23.6556 30.301C22.7262 32.5447 22.483 35.0136 22.9568 37.3955C23.4306 39.7775 24.6001 41.9654 26.3174 43.6827C28.0346 45.3999 30.2226 46.5694 32.6045 47.0432C34.9864 47.517 37.4553 47.2738 39.6991 46.3445C41.9428 45.4151 43.8605 43.8412 45.2098 41.8219C46.559 39.8026 47.2792 37.4286 47.2792 35C47.2715 31.7457 45.9753 28.6269 43.6742 26.3258C41.3731 24.0247 38.2543 22.7285 35 22.7208Z"
      ></path>
    <path
      d="M61.25 36.4583H8.75002C8.36325 36.4583 7.99231 36.3047 7.71882 36.0312C7.44533 35.7577 7.29169 35.3868 7.29169 35C7.29169 34.6132 7.44533 34.2423 7.71882 33.9688C7.99231 33.6953 8.36325 33.5417 8.75002 33.5417H61.25C61.6368 33.5417 62.0077 33.6953 62.2812 33.9688C62.5547 34.2423 62.7084 34.6132 62.7084 35C62.7084 35.3868 62.5547 35.7577 62.2812 36.0312C62.0077 36.3047 61.6368 36.4583 61.25 36.4583Z"
      ></path>
    <path
      d="M35 62.7083C34.6132 62.7083 34.2423 62.5547 33.9688 62.2812C33.6953 62.0077 33.5417 61.6368 33.5417 61.25V8.74999C33.5417 8.36322 33.6953 7.99228 33.9688 7.71879C34.2423 7.4453 34.6132 7.29166 35 7.29166C35.3868 7.29166 35.7577 7.4453 36.0312 7.71879C36.3047 7.99228 36.4584 8.36322 36.4584 8.74999V61.25C36.4584 61.6368 36.3047 62.0077 36.0312 62.2812C35.7577 62.5547 35.3868 62.7083 35 62.7083Z"
      ></path>
  </symbol>
  <symbol xmlns="http://www.w3.org/2000/svg" viewBox="0 0 24 24" id="glass">
    <path
      d="M9.74998 17C8.31521 17 6.91271 16.5743 5.72002 15.7768C4.52733 14.9792 3.5981 13.8457 3.04996 12.5198C2.50181 11.1939 2.35941 9.73513 2.64078 8.32823C2.92215 6.92132 3.61463 5.62953 4.63056 4.6164C5.6465 3.60327 6.94019 2.91436 8.34787 2.63688C9.75555 2.3594 11.2139 2.50583 12.5383 3.05763C13.8627 3.60944 14.9936 4.5418 15.7879 5.73668C16.5821 6.93157 17.0039 8.33524 17 9.77C16.992 11.6885 16.225 13.5259 14.8665 14.8807C13.508 16.2354 11.6685 16.9974 9.74998 17ZM9.74998 3.5C8.5147 3.50001 7.30712 3.86607 6.27975 4.55195C5.25238 5.23782 4.4513 6.21276 3.97767 7.35364C3.50404 8.49451 3.3791 9.75015 3.61864 10.962C3.85819 12.1738 4.45146 13.2875 5.32354 14.1624C6.19561 15.0372 7.30739 15.6341 8.51845 15.8775C9.72951 16.1209 10.9855 16 12.1279 15.53C13.2703 15.06 14.2478 14.262 14.937 13.2369C15.6261 12.2117 15.996 11.0053 16 9.77C16 8.1124 15.3415 6.52269 14.1694 5.35059C12.9973 4.17848 11.4076 3.52 9.74998 3.52V3.5Z"
      ></path>
    <path
      d="M21 21.5199C20.9344 21.5207 20.8694 21.5078 20.8091 21.4819C20.7488 21.4561 20.6946 21.4179 20.65 21.3699L14.17 14.8899C14.0772 14.7971 14.025 14.6712 14.025 14.5399C14.025 14.4086 14.0772 14.2827 14.17 14.1899C14.2628 14.0971 14.3887 14.0449 14.52 14.0449C14.6513 14.0449 14.7772 14.0971 14.87 14.1899L21.35 20.6699C21.3978 20.7148 21.436 20.769 21.462 20.8292C21.4881 20.8894 21.5015 20.9543 21.5015 21.0199C21.5015 21.0855 21.4881 21.1504 21.462 21.2106C21.436 21.2708 21.3978 21.325 21.35 21.3699C21.3054 21.4179 21.2511 21.4561 21.1909 21.4819C21.1306 21.5078 21.0656 21.5207 21 21.5199Z"
      ></path>
  </symbol>
  <symbol  xmlns="http://www.w3.org/2000/svg" viewBox="0 0 72 71" id="mushroom">
    <g>
      <path
        d="M31.1584 51.1875C30.863 51.1933 30.5726 51.111 30.3242 50.9511C30.0758 50.7912 29.8806 50.561 29.7635 50.2898C29.6464 50.0185 29.6128 49.7185 29.6668 49.4281C29.7209 49.1377 29.8602 48.8699 30.067 48.6589C30.2739 48.448 30.5388 48.3034 30.8281 48.2436C31.1174 48.1838 31.418 48.2115 31.6915 48.3232C31.965 48.4348 32.1991 48.6254 32.3639 48.8707C32.5286 49.1159 32.6167 49.4046 32.6167 49.7C32.6168 50.0895 32.4641 50.4635 32.1914 50.7417C31.9187 51.0198 31.5478 51.1799 31.1584 51.1875Z"
        ></path>
      <path
        d="M41.8625 51.1875C42.6679 51.1875 43.3208 50.5346 43.3208 49.7292C43.3208 48.9238 42.6679 48.2708 41.8625 48.2708C41.0571 48.2708 40.4042 48.9238 40.4042 49.7292C40.4042 50.5346 41.0571 51.1875 41.8625 51.1875Z"
        ></path>
      <path
        d="M42.6209 62.65H29.3792C25.9446 62.65 22.6508 61.2856 20.2222 58.857C17.7936 56.4284 16.4292 53.1346 16.4292 49.7C16.4292 46.2654 17.7936 42.9716 20.2222 40.543C22.6508 38.1144 25.9446 36.75 29.3792 36.75H42.6209C46.0554 36.75 49.3493 38.1144 51.7779 40.543C54.2065 42.9716 55.5709 46.2654 55.5709 49.7C55.5709 53.1346 54.2065 56.4284 51.7779 58.857C49.3493 61.2856 46.0554 62.65 42.6209 62.65ZM29.3792 39.6667C28.0616 39.6667 26.7569 39.9262 25.5396 40.4304C24.3223 40.9346 23.2162 41.6737 22.2846 42.6054C21.3529 43.537 20.6138 44.6431 20.1096 45.8604C19.6054 47.0777 19.3459 48.3824 19.3459 49.7C19.3459 51.0176 19.6054 52.3223 20.1096 53.5396C20.6138 54.7569 21.3529 55.863 22.2846 56.7946C23.2162 57.7263 24.3223 58.4654 25.5396 58.9696C26.7569 59.4738 28.0616 59.7333 29.3792 59.7333H42.6209C45.2819 59.7333 47.8339 58.6763 49.7155 56.7946C51.5971 54.913 52.6542 52.361 52.6542 49.7C52.6542 47.039 51.5971 44.487 49.7155 42.6054C47.8339 40.7237 45.2819 39.6667 42.6209 39.6667H29.3792Z"
        ></path>
      <path
        d="M59.3334 43.925H51.5167C51.1299 43.925 50.759 43.7714 50.4855 43.4979C50.212 43.2244 50.0584 42.8534 50.0584 42.4667C50.0584 42.0799 50.212 41.709 50.4855 41.4355C50.759 41.162 51.1299 41.0083 51.5167 41.0083H59.3334C60.7389 41.0007 62.0846 40.4389 63.0785 39.4451C64.0723 38.4512 64.634 37.1055 64.6417 35.7C64.634 28.9621 61.9559 22.5019 57.1942 17.7347C52.4325 12.9676 45.9754 10.2821 39.2375 10.2667H33.0834C26.3404 10.2744 19.8758 12.9564 15.1078 17.7244C10.3398 22.4924 7.65774 28.957 7.65002 35.7C7.65768 37.1055 8.21941 38.4512 9.21326 39.4451C10.2071 40.4389 11.5529 41.0007 12.9584 41.0083H20.4834C20.8701 41.0083 21.2411 41.162 21.5146 41.4355C21.788 41.709 21.9417 42.0799 21.9417 42.4667C21.9417 42.8534 21.788 43.2244 21.5146 43.4979C21.2411 43.7714 20.8701 43.925 20.4834 43.925H12.8125C10.6311 43.925 8.53906 43.0584 6.99657 41.516C5.45408 39.9735 4.58752 37.8814 4.58752 35.7C4.59133 31.9658 5.33206 28.2691 6.76725 24.8217C8.20245 21.3743 10.3039 18.2441 12.9511 15.6104C15.5984 12.9767 18.7393 10.8914 22.194 9.47389C25.6487 8.0564 29.3492 7.33465 33.0834 7.35H39.2375C46.7439 7.36542 53.9385 10.3542 59.2464 15.662C64.5542 20.9699 67.5429 28.1644 67.5584 35.6708C67.5584 37.8549 66.6927 39.95 65.1511 41.4971C63.6094 43.0442 61.5174 43.9173 59.3334 43.925Z"
        ></path>
      <path
        d="M10.2458 35.9625C8.65304 35.9377 7.07941 35.6111 5.60832 35C5.43011 34.9293 5.26759 34.8241 5.13006 34.6905C4.99253 34.5569 4.8827 34.3975 4.80685 34.2214C4.73099 34.0453 4.69061 33.856 4.688 33.6643C4.68539 33.4726 4.72062 33.2822 4.79165 33.1042C4.85591 32.9245 4.95621 32.7598 5.0864 32.6204C5.2166 32.4809 5.37393 32.3695 5.54874 32.293C5.72356 32.2165 5.91216 32.1766 6.10296 32.1756C6.29377 32.1747 6.48276 32.2127 6.65832 32.2875C7.8038 32.726 9.01928 32.9533 10.2458 32.9583C12.2594 32.9441 14.2162 32.2891 15.8325 31.0882C17.4488 29.8872 18.6407 28.2027 19.2354 26.2789C19.8301 24.3551 19.7967 22.2918 19.1401 20.3883C18.4834 18.4847 17.2377 16.8397 15.5833 15.6917C15.3145 15.4569 15.1411 15.1318 15.0959 14.7777C15.0507 14.4237 15.1369 14.0654 15.3382 13.7707C15.5395 13.476 15.8418 13.2653 16.188 13.1785C16.5342 13.0918 16.9002 13.135 17.2167 13.3C19.4138 14.7866 21.0761 16.9388 21.9591 19.4403C22.8422 21.9418 22.8995 24.6606 22.1226 27.1971C21.3456 29.7336 19.7755 31.9539 17.6429 33.5317C15.5103 35.1095 12.9278 35.9615 10.275 35.9625H10.2458Z"
        ></path>
      <path
        d="M65.9251 35.9042C61.3674 35.5594 57.107 33.5096 53.9933 30.1635C50.8797 26.8174 49.1414 22.4207 49.1251 17.85C49.1189 15.6457 49.5245 13.4596 50.3209 11.4042C50.3916 11.226 50.4968 11.0635 50.6304 10.9259C50.764 10.7884 50.9234 10.6786 51.0995 10.6027C51.2756 10.5269 51.4649 10.4865 51.6566 10.4839C51.8483 10.4813 52.0386 10.5165 52.2167 10.5875C52.3964 10.6518 52.561 10.7521 52.7005 10.8823C52.84 11.0125 52.9514 11.1698 53.0279 11.3446C53.1044 11.5194 53.1443 11.708 53.1453 11.8988C53.1462 12.0896 53.1082 12.2786 53.0334 12.4542C52.2201 14.653 51.9265 17.0101 52.1757 19.3413C52.4249 21.6724 53.2101 23.9142 54.4699 25.8914C55.7296 27.8686 57.4297 29.5274 59.4372 30.7383C61.4448 31.9491 63.7052 32.679 66.0417 32.8709C66.4285 32.8709 66.7994 33.0245 67.0729 33.298C67.3464 33.5715 67.5001 33.9424 67.5001 34.3292C67.5001 34.716 67.3464 35.0869 67.0729 35.3604C66.7994 35.6339 66.4285 35.7875 66.0417 35.7875L65.9251 35.9042Z"
        ></path>
    </g>
    <defs>
      <filter id="filter0_d_2543_98" x="-3" y="0" width="78" height="78" filterUnits="userSpaceOnUse"
        color-interpolation-filters="sRGB">
        <feFlood flood-opacity="0" result="BackgroundImageFix"></feFlood>
        <feColorMatrix in="SourceAlpha" type="matrix" values="0 0 0 0 0 0 0 0 0 0 0 0 0 0 0 0 0 0 127 0"
          result="hardAlpha"></feColorMatrix>
        <feOffset dy="4"></feOffset>
        <feGaussianBlur stdDeviation="2"></feGaussianBlur>
        <feComposite in2="hardAlpha" operator="out"></feComposite>
        <feColorMatrix type="matrix" values="0 0 0 0 0 0 0 0 0 0 0 0 0 0 0 0 0 0 0.25 0"></feColorMatrix>
        <feBlend mode="normal" in2="BackgroundImageFix" result="effect1_dropShadow_2543_98"></feBlend>
        <feBlend mode="normal" in="SourceGraphic" in2="effect1_dropShadow_2543_98" result="shape"></feBlend>
      </filter>
    </defs>
  </symbol>
  <symbol  xmlns="http://www.w3.org/2000/svg" viewBox="0 0 70 70" id="paper">
    <path
      d="M11.6667 59.7917C11.3649 59.7903 11.0704 59.6989 10.8209 59.5292C10.6069 59.4092 10.4275 59.2361 10.2998 59.0267C10.1721 58.8173 10.1004 58.5785 10.0917 58.3333V17.5C10.0896 17.2037 10.1778 16.9139 10.3446 16.669C10.5113 16.4241 10.7486 16.2358 11.025 16.1292L25.9292 10.2958C26.2693 10.178 26.6391 10.178 26.9792 10.2958L41.125 15.8375L58.0125 10.2958C58.2302 10.213 58.4657 10.1883 58.6958 10.2241C58.926 10.2599 59.1428 10.355 59.325 10.5C59.5097 10.6325 59.6592 10.808 59.7609 11.0112C59.8625 11.2145 59.9131 11.4395 59.9084 11.6667V52.5C59.9106 52.8043 59.8156 53.1014 59.6372 53.3479C59.4588 53.5945 59.2064 53.7777 58.9167 53.8708L41.4167 59.7042C41.0963 59.82 40.7455 59.82 40.425 59.7042L26.425 54.1917L12.075 59.7042C11.9432 59.7504 11.806 59.7798 11.6667 59.7917ZM26.5417 51.0417C26.7239 50.9983 26.9137 50.9983 27.0959 51.0417L40.8334 56.7875L56.9625 51.3333V13.6792L41.5042 18.7542C41.1838 18.87 40.833 18.87 40.5125 18.7542L26.425 13.2417L13.0084 18.375V56.2917L25.9292 51.3625C26.0718 51.2488 26.2438 51.178 26.425 51.1583L26.5417 51.0417Z"
      ></path>
    <path
      d="M26.425 54.075C26.0382 54.075 25.6673 53.9213 25.3938 53.6479C25.1203 53.3744 24.9667 53.0034 24.9667 52.6167V11.6667C24.9667 11.2799 25.1203 10.909 25.3938 10.6355C25.6673 10.362 26.0382 10.2083 26.425 10.2083C26.8118 10.2083 27.1827 10.362 27.4562 10.6355C27.7297 10.909 27.8833 11.2799 27.8833 11.6667V52.5C27.8995 52.7011 27.8737 52.9033 27.8077 53.094C27.7417 53.2846 27.6368 53.4594 27.4997 53.6075C27.3627 53.7555 27.1964 53.8735 27.0114 53.954C26.8264 54.0344 26.6267 54.0756 26.425 54.075Z"
      ></path>
    <path
      d="M41.0959 59.7917C40.7091 59.7917 40.3382 59.638 40.0647 59.3645C39.7912 59.091 39.6376 58.7201 39.6376 58.3333V17.5C39.6376 17.1132 39.7912 16.7423 40.0647 16.4688C40.3382 16.1953 40.7091 16.0417 41.0959 16.0417C41.4827 16.0417 41.8536 16.1953 42.1271 16.4688C42.4006 16.7423 42.5542 17.1132 42.5542 17.5V58.3333C42.5542 58.7201 42.4006 59.091 42.1271 59.3645C41.8536 59.638 41.4827 59.7917 41.0959 59.7917Z"
      ></path>
  </symbol>
  <symbol  xmlns="http://www.w3.org/2000/svg" viewBox="0 0 70 70" id="picture">
    <path
      d="M51.0417 61.25H18.9583C16.2509 61.25 13.6544 60.1745 11.74 58.2601C9.82552 56.3456 8.75 53.7491 8.75 51.0417V18.9583C8.75 16.2509 9.82552 13.6544 11.74 11.74C13.6544 9.82552 16.2509 8.75 18.9583 8.75H51.0417C53.7491 8.75 56.3456 9.82552 58.2601 11.74C60.1745 13.6544 61.25 16.2509 61.25 18.9583V51.0417C61.25 53.7491 60.1745 56.3456 58.2601 58.2601C56.3456 60.1745 53.7491 61.25 51.0417 61.25ZM18.9583 11.6667C17.0245 11.6667 15.1698 12.4349 13.8023 13.8023C12.4349 15.1698 11.6667 17.0245 11.6667 18.9583V51.0417C11.6667 52.9755 12.4349 54.8302 13.8023 56.1977C15.1698 57.5651 17.0245 58.3333 18.9583 58.3333H51.0417C52.9755 58.3333 54.8302 57.5651 56.1977 56.1977C57.5651 54.8302 58.3333 52.9755 58.3333 51.0417V18.9583C58.3333 17.0245 57.5651 15.1698 56.1977 13.8023C54.8302 12.4349 52.9755 11.6667 51.0417 11.6667H18.9583Z"
      ></path>
    <path
      d="M10.2084 49.0292C9.9959 49.0315 9.78568 48.9854 9.59365 48.8945C9.40162 48.8035 9.23282 48.67 9.10003 48.5042C8.97495 48.3598 8.88009 48.1918 8.82105 48.0101C8.76202 47.8284 8.74001 47.6367 8.75632 47.4464C8.77263 47.256 8.82694 47.0709 8.91604 46.9019C9.00513 46.7329 9.1272 46.5835 9.27503 46.4625L22.9834 35C25.0624 33.276 27.7399 32.4461 30.4295 32.6921C33.1191 32.9381 35.6016 34.2399 37.3334 36.3125L40.6 40.2208C41.2202 40.9681 41.9839 41.5834 42.846 42.0303C43.7081 42.4772 44.6511 42.7468 45.6192 42.8229C46.5872 42.899 47.5607 42.7803 48.4821 42.4736C49.4035 42.1669 50.254 41.6786 50.9834 41.0375L58.8292 34.1833C59.1253 33.9329 59.5074 33.808 59.8943 33.8353C60.2811 33.8625 60.642 34.0397 60.9 34.3292C61.0268 34.4717 61.1237 34.6382 61.1852 34.8188C61.2466 34.9994 61.2712 35.1905 61.2576 35.3807C61.244 35.571 61.1925 35.7567 61.106 35.9267C61.0196 36.0967 60.8999 36.2478 60.7542 36.3708L52.9084 43.225C51.8859 44.1287 50.6921 44.8176 49.3981 45.2507C48.1041 45.6838 46.7361 45.8523 45.3757 45.7462C44.0152 45.6401 42.69 45.2615 41.4787 44.633C40.2675 44.0045 39.195 43.1388 38.325 42.0875L35 38.2667C34.3896 37.5324 33.6404 36.9258 32.7953 36.4814C31.9502 36.0371 31.0257 35.7637 30.0748 35.677C29.1239 35.5904 28.1653 35.692 27.2538 35.9762C26.3422 36.2604 25.4957 36.7216 24.7625 37.3333L11.0542 48.7083C10.8097 48.8957 10.5156 49.0072 10.2084 49.0292Z"
      ></path>
  </symbol>
  <symbol  xmlns="http://www.w3.org/2000/svg" viewBox="0 0 24 24" id="basket">
    <path
      d="M16.39 15.3101H12.2C12.0674 15.3101 11.9402 15.2574 11.8465 15.1636C11.7527 15.0698 11.7 14.9427 11.7 14.8101C11.7 14.6775 11.7527 14.5503 11.8465 14.4565C11.9402 14.3627 12.0674 14.3101 12.2 14.3101H16.39C16.5226 14.3101 16.6498 14.3627 16.7436 14.4565C16.8373 14.5503 16.89 14.6775 16.89 14.8101C16.89 14.9427 16.8373 15.0698 16.7436 15.1636C16.6498 15.2574 16.5226 15.3101 16.39 15.3101Z"
      ></path>
    <path
      d="M19.21 15.0001C19.1508 15.0142 19.0892 15.0142 19.03 15.0001C18.9684 14.9779 18.9118 14.9436 18.8637 14.8992C18.8156 14.8547 18.7768 14.8011 18.7498 14.7414C18.7228 14.6817 18.708 14.6172 18.7063 14.5518C18.7046 14.4863 18.7161 14.4211 18.74 14.3601L21.12 8.00014C21.1671 7.87735 21.2607 7.77805 21.3805 7.72377C21.5003 7.66949 21.6366 7.66459 21.76 7.71014C21.8837 7.75945 21.9838 7.85436 22.0397 7.9753C22.0955 8.09624 22.1027 8.23399 22.06 8.36014L19.68 14.6901C19.6397 14.7815 19.5739 14.8593 19.4906 14.9143C19.4072 14.9692 19.3098 14.999 19.21 15.0001Z"
      ></path>
    <path
      d="M9.00001 15.1901C8.89568 15.1908 8.79383 15.1582 8.7093 15.0971C8.62476 15.0359 8.56195 14.9494 8.53001 14.8501L5.39001 5.31006H2.39001C2.25741 5.31006 2.13023 5.25738 2.03646 5.16361C1.94269 5.06984 1.89001 4.94267 1.89001 4.81006C1.89257 4.67825 1.94608 4.55256 2.03929 4.45934C2.13251 4.36612 2.25821 4.31262 2.39001 4.31006H5.75001C5.85362 4.31227 5.9541 4.34599 6.03806 4.40673C6.12203 4.46747 6.18549 4.55235 6.22001 4.65006L9.51002 14.5301C9.53193 14.5917 9.54127 14.6572 9.53748 14.7225C9.53369 14.7878 9.51685 14.8518 9.48796 14.9105C9.45906 14.9692 9.4187 15.0215 9.36924 15.0644C9.31979 15.1073 9.26225 15.1398 9.20001 15.1601C9.13649 15.1851 9.06809 15.1954 9.00001 15.1901Z"
      ></path>
    <path
      d="M10.54 19.6899C9.9467 19.6899 9.36668 19.514 8.87333 19.1844C8.37998 18.8547 7.99546 18.3862 7.7684 17.838C7.54134 17.2898 7.48193 16.6866 7.59768 16.1047C7.71344 15.5227 7.99916 14.9882 8.41872 14.5686C8.83828 14.1491 9.37283 13.8633 9.95477 13.7476C10.5367 13.6318 11.1399 13.6912 11.6881 13.9183C12.2363 14.1454 12.7048 14.5299 13.0344 15.0232C13.3641 15.5166 13.54 16.0966 13.54 16.6899C13.54 17.4856 13.224 18.2487 12.6614 18.8113C12.0988 19.3739 11.3357 19.6899 10.54 19.6899ZM10.54 14.6899C10.1445 14.6899 9.7578 14.8072 9.4289 15.027C9.1 15.2468 8.84366 15.5591 8.69228 15.9246C8.54091 16.29 8.5013 16.6922 8.57847 17.0801C8.65564 17.4681 8.84612 17.8245 9.12583 18.1042C9.40553 18.3839 9.7619 18.5743 10.1499 18.6515C10.5378 18.7287 10.94 18.6891 11.3054 18.5377C11.6709 18.3863 11.9832 18.13 12.203 17.8011C12.4227 17.4722 12.54 17.0855 12.54 16.6899C12.54 16.1595 12.3293 15.6508 11.9543 15.2757C11.5792 14.9007 11.0705 14.6899 10.54 14.6899Z"
      ></path>
    <path
      d="M18.05 19.6899C17.4566 19.6899 16.8766 19.514 16.3833 19.1844C15.8899 18.8547 15.5054 18.3862 15.2784 17.838C15.0513 17.2898 14.9919 16.6866 15.1076 16.1047C15.2234 15.5227 15.5091 14.9882 15.9287 14.5686C16.3482 14.1491 16.8828 13.8633 17.4647 13.7476C18.0467 13.6318 18.6499 13.6912 19.198 13.9183C19.7462 14.1454 20.2148 14.5299 20.5444 15.0232C20.874 15.5166 21.05 16.0966 21.05 16.6899C21.05 17.4856 20.7339 18.2487 20.1713 18.8113C19.6087 19.3739 18.8456 19.6899 18.05 19.6899ZM18.05 14.6899C17.6544 14.6899 17.2677 14.8072 16.9388 15.027C16.61 15.2468 16.3536 15.5591 16.2022 15.9246C16.0509 16.29 16.0112 16.6922 16.0884 17.0801C16.1656 17.4681 16.3561 17.8245 16.6358 18.1042C16.9155 18.3839 17.2718 18.5743 17.6598 18.6515C18.0478 18.7287 18.4499 18.6891 18.8154 18.5377C19.1808 18.3863 19.4932 18.13 19.7129 17.8011C19.9327 17.4722 20.05 17.0855 20.05 16.6899C20.05 16.1595 19.8393 15.6508 19.4642 15.2757C19.0891 14.9007 18.5804 14.6899 18.05 14.6899Z"
      ></path>
  </symbol>
  <symbol  xmlns="http://www.w3.org/2000/svg" viewBox="0 0 70 70" id="squares">
    <path
      d="M26.6876 32.0834H12.1042C10.8097 32.0834 9.56777 31.5711 8.64967 30.6585C7.73158 29.7459 7.21193 28.507 7.20422 27.2125V12.6292C7.21188 11.332 7.73058 10.0901 8.64786 9.17282C9.56513 8.25555 10.807 7.73684 12.1042 7.72919H26.6876C27.9848 7.73684 29.2266 8.25555 30.1439 9.17282C31.0612 10.0901 31.5799 11.332 31.5876 12.6292V27.2125C31.5798 28.507 31.0602 29.7459 30.1421 30.6585C29.224 31.5711 27.9821 32.0834 26.6876 32.0834ZM12.1042 10.6167C11.5806 10.6242 11.0805 10.8356 10.7101 11.2059C10.3398 11.5763 10.1284 12.0764 10.1209 12.6V27.1834C10.1209 27.7094 10.3298 28.2138 10.7018 28.5858C11.0737 28.9577 11.5782 29.1667 12.1042 29.1667H26.6876C27.2136 29.1667 27.718 28.9577 28.09 28.5858C28.4619 28.2138 28.6709 27.7094 28.6709 27.1834V12.6C28.6634 12.0764 28.452 11.5763 28.0816 11.2059C27.7113 10.8356 27.2112 10.6242 26.6876 10.6167H12.1042Z"
      ></path>
    <path
      d="M57.8959 32.0833H43.3126C42.013 32.0833 40.7667 31.5671 39.8478 30.6482C38.9288 29.7292 38.4126 28.4829 38.4126 27.1833V12.6C38.4203 11.3028 38.939 10.0609 39.8562 9.14365C40.7735 8.22637 42.0154 7.70767 43.3126 7.70001H57.8959C59.1931 7.70767 60.435 8.22637 61.3523 9.14365C62.2696 10.0609 62.7883 11.3028 62.7959 12.6V27.1833C62.7959 28.4829 62.2797 29.7292 61.3608 30.6482C60.4418 31.5671 59.1955 32.0833 57.8959 32.0833ZM43.3126 10.6167C42.7889 10.6242 42.2888 10.8356 41.9185 11.2059C41.5482 11.5762 41.3368 12.0763 41.3293 12.6V27.1833C41.3293 27.7094 41.5382 28.2138 41.9102 28.5858C42.2821 28.9577 42.7866 29.1667 43.3126 29.1667H57.8959C58.4219 29.1667 58.9264 28.9577 59.2984 28.5858C59.6703 28.2138 59.8793 27.7094 59.8793 27.1833V12.6C59.8717 12.0763 59.6603 11.5762 59.29 11.2059C58.9197 10.8356 58.4196 10.6242 57.8959 10.6167H43.3126Z"
      ></path>
    <path
      d="M26.6876 62.2709H12.1042C10.807 62.2632 9.56513 61.7445 8.64786 60.8272C7.73058 59.9099 7.21188 58.6681 7.20422 57.3709V42.7875C7.21193 41.493 7.73158 40.2542 8.64967 39.3415C9.56777 38.4289 10.8097 37.9167 12.1042 37.9167H26.6876C27.9871 37.9167 29.2334 38.4329 30.1524 39.3519C31.0713 40.2708 31.5876 41.5171 31.5876 42.8167V57.4C31.5723 58.6921 31.0502 59.9266 30.1338 60.8376C29.2173 61.7486 27.9797 62.2633 26.6876 62.2709ZM12.1042 40.8334C11.5782 40.8334 11.0737 41.0423 10.7018 41.4143C10.3298 41.7862 10.1209 42.2907 10.1209 42.8167V57.4C10.1284 57.9237 10.3398 58.4238 10.7101 58.7941C11.0805 59.1644 11.5806 59.3758 12.1042 59.3834H26.6876C27.2112 59.3758 27.7113 59.1644 28.0816 58.7941C28.452 58.4238 28.6634 57.9237 28.6709 57.4V42.8167C28.6709 42.2907 28.4619 41.7862 28.09 41.4143C27.718 41.0423 27.2136 40.8334 26.6876 40.8334H12.1042Z"
      ></path>
    <path
      d="M57.8959 62.2709H43.3126C42.0154 62.2632 40.7735 61.7445 39.8562 60.8272C38.939 59.9099 38.4203 58.6681 38.4126 57.3709V42.7875C38.4203 41.493 38.94 40.2542 39.858 39.3415C40.7761 38.4289 42.0181 37.9167 43.3126 37.9167H57.8959C59.1955 37.9167 60.4418 38.4329 61.3608 39.3519C62.2797 40.2708 62.7959 41.5171 62.7959 42.8167V57.4C62.7807 58.6921 62.2586 59.9266 61.3421 60.8376C60.4257 61.7486 59.1881 62.2633 57.8959 62.2709ZM43.3126 40.8042C42.7866 40.8042 42.2821 41.0131 41.9102 41.3851C41.5382 41.757 41.3293 42.2615 41.3293 42.7875V57.3709C41.3368 57.8945 41.5482 58.3946 41.9185 58.7649C42.2888 59.1353 42.7889 59.3467 43.3126 59.3542H57.8959C58.4196 59.3467 58.9197 59.1353 59.29 58.7649C59.6603 58.3946 59.8717 57.8945 59.8793 57.3709V42.7875C59.8793 42.2615 59.6703 41.757 59.2984 41.3851C58.9264 41.0131 58.4219 40.8042 57.8959 40.8042H43.3126Z"
      ></path>
  </symbol>
  <symbol  xmlns="http://www.w3.org/2000/svg" viewBox="0 0 70 70" id="sword">
    <g>
      <path
        d="M35 53.1125C34.6153 53.107 34.2484 52.9498 33.9792 52.675L17.3542 36.05C17.2175 35.9144 17.109 35.7531 17.0349 35.5754C16.9609 35.3977 16.9228 35.2071 16.9228 35.0146C16.9228 34.8221 16.9609 34.6315 17.0349 34.4538C17.109 34.276 17.2175 34.1147 17.3542 33.9792L41.825 9.18751C41.9471 9.03746 42.1037 8.91926 42.2815 8.84306C42.4593 8.76686 42.653 8.73493 42.8458 8.75001H59.6167C60.0011 8.75747 60.3677 8.91352 60.6396 9.18541C60.9115 9.45729 61.0675 9.8239 61.075 10.2083L61.25 26.8042C61.2546 27.0001 61.2181 27.1947 61.1427 27.3756C61.0673 27.5565 60.9548 27.7195 60.8125 27.8542L36.0208 52.675C35.7498 52.9472 35.384 53.1039 35 53.1125ZM20.4167 35L35 49.5833L58.3333 26.25L58.1583 11.6667H43.575L20.4167 35Z"
        ></path>
      <path
        d="M43.1375 61.25C42.7582 61.2464 42.3939 61.1007 42.1167 60.8417L9.18754 27.9125C9.05085 27.7769 8.94236 27.6156 8.86832 27.4379C8.79428 27.2602 8.75616 27.0696 8.75616 26.8771C8.75616 26.6846 8.79428 26.494 8.86832 26.3163C8.94236 26.1385 9.05085 25.9772 9.18754 25.8417C9.31847 25.7022 9.4766 25.591 9.65218 25.515C9.82775 25.439 10.017 25.3997 10.2084 25.3997C10.3997 25.3997 10.589 25.439 10.7646 25.515C10.9401 25.591 11.0983 25.7022 11.2292 25.8417L44.1875 58.7708C44.4566 59.0484 44.6071 59.4197 44.6071 59.8063C44.6071 60.1928 44.4566 60.5642 44.1875 60.8417C43.8999 61.1026 43.5259 61.248 43.1375 61.25Z"
        ></path>
      <path
        d="M20.4167 61.075C20.0225 61.0741 19.6449 60.9167 19.3667 60.6375L9.24583 50.6625C9.0935 50.5263 8.97085 50.3602 8.88554 50.1746C8.80024 49.9889 8.7541 49.7876 8.75 49.5834C8.75 48.7958 8.75 48.6792 20.4167 37.2167C20.5522 37.08 20.7135 36.9715 20.8912 36.8975C21.069 36.8234 21.2596 36.7853 21.4521 36.7853C21.6446 36.7853 21.8352 36.8234 22.0129 36.8975C22.1906 36.9715 22.3519 37.08 22.4875 37.2167C22.7566 37.4942 22.907 37.8656 22.907 38.2521C22.907 38.6386 22.7566 39.01 22.4875 39.2875C19.3375 42.5542 14.2917 47.5417 12.3083 49.5834L20.4167 57.5458L30.7125 47.2209C30.9871 46.9462 31.3596 46.792 31.7479 46.792C32.1363 46.792 32.5087 46.9462 32.7833 47.2209C33.0579 47.4955 33.2122 47.8679 33.2122 48.2563C33.2122 48.6446 33.0579 49.0171 32.7833 49.2917L21.2917 60.6375C21.0591 60.8797 20.75 61.0343 20.4167 61.075Z"
        ></path>
      <path
        d="M35 36.4583C34.8087 36.4607 34.6191 36.4229 34.4433 36.3476C34.2675 36.2722 34.1094 36.1609 33.9792 36.0208C33.8397 35.8899 33.7285 35.7318 33.6525 35.5562C33.5764 35.3806 33.5372 35.1913 33.5372 35C33.5372 34.8087 33.5764 34.6194 33.6525 34.4438C33.7285 34.2682 33.8397 34.1101 33.9792 33.9792L45.6458 22.3125C45.7799 22.1784 45.939 22.0721 46.1142 21.9995C46.2893 21.927 46.4771 21.8896 46.6667 21.8896C46.8562 21.8896 47.044 21.927 47.2191 21.9995C47.3943 22.0721 47.5534 22.1784 47.6875 22.3125C47.8216 22.4465 47.9279 22.6057 48.0004 22.7809C48.073 22.956 48.1103 23.1437 48.1103 23.3333C48.1103 23.5229 48.073 23.7106 48.0004 23.8858C47.9279 24.061 47.8216 24.2201 47.6875 24.3542L36.0208 36.0208C35.8906 36.1609 35.7325 36.2722 35.5567 36.3476C35.3809 36.4229 35.1913 36.4607 35 36.4583Z"
        ></path>
    </g>
    <defs>
      <filter id="filter0_d_2545_173" x="-4" y="0" width="78" height="78" filterUnits="userSpaceOnUse"
        color-interpolation-filters="sRGB">
        <feFlood flood-opacity="0" result="BackgroundImageFix"></feFlood>
        <feColorMatrix in="SourceAlpha" type="matrix" values="0 0 0 0 0 0 0 0 0 0 0 0 0 0 0 0 0 0 127 0"
          result="hardAlpha"></feColorMatrix>
        <feOffset dy="4"></feOffset>
        <feGaussianBlur stdDeviation="2"></feGaussianBlur>
        <feComposite in2="hardAlpha" operator="out"></feComposite>
        <feColorMatrix type="matrix" values="0 0 0 0 0 0 0 0 0 0 0 0 0 0 0 0 0 0 0.25 0"></feColorMatrix>
        <feBlend mode="normal" in2="BackgroundImageFix" result="effect1_dropShadow_2545_173"></feBlend>
        <feBlend mode="normal" in="SourceGraphic" in2="effect1_dropShadow_2545_173" result="shape"></feBlend>
      </filter>
    </defs>
  </symbol>
</svg>